<svg xmlns="http://www.w3.org/2000/svg" width="31.159" height="36.079" viewBox="0 0 31.159 36.079">
  <path id="cinema" d="M300.86,13.4c.006-.073.022-.139.026-.213a4.828,4.828,0,0,0-2.441-4.205,5.573,5.573,0,0,0,.044-.587,4.734,4.734,0,0,0-4.63-4.831h-.145a4.717,4.717,0,0,0-1.692.3,4.793,4.793,0,0,0-8.633,0,4.567,4.567,0,0,0-1.655-.3,4.616,4.616,0,0,0-3.369,1.328,4.727,4.727,0,0,0-1.448,3.334V8.4a5.493,5.493,0,0,0,.044.581,4.842,4.842,0,0,0-2.441,4.23c0,.063.017.125.022.189a3.6,3.6,0,0,0,1.176,7h.109l2.029,15.787a1.2,1.2,0,0,0,1.189,1.049h17.315a1.2,1.2,0,0,0,1.188-1.049l2.03-15.787h.111a3.6,3.6,0,0,0,1.17-7m-22.185-2.546a1.2,1.2,0,0,0,.741-.6,1.213,1.213,0,0,0,.07-.956,3.209,3.209,0,0,1-.173-1.034,2.327,2.327,0,0,1,.713-1.643,2.286,2.286,0,0,1,1.7-.654,1.933,1.933,0,0,1,1.539.617,1.2,1.2,0,0,0,2.035-.776,2.4,2.4,0,0,1,4.8,0,1.2,1.2,0,0,0,2.035.776,2.1,2.1,0,0,1,1.539-.617c.015,0,.11,0,.128,0a2.332,2.332,0,0,1,2.287,2.376,3.064,3.064,0,0,1-.173.954,1.209,1.209,0,0,0,.07.954,1.2,1.2,0,0,0,.742.6,2.4,2.4,0,0,1,1.759,2.266c0,.021-.012.041-.013.063h-21.56v0a2.411,2.411,0,0,1,1.759-2.325m-.431,9.543h4.007l.927,14.431H280.1Zm6.409,0h6.1l-.928,14.431H285.58Zm10.654,14.431h-3.08l.928-14.431h4.007Zm4.377-16.835H275.723a1.2,1.2,0,0,1,0-2.4h23.965a1.2,1.2,0,0,1,0,2.4" transform="translate(-272.123 -1.154)" fill="#e51d35"/>
</svg>
