<svg id="compartilhar-whatsapp" xmlns="http://www.w3.org/2000/svg" width="40" height="40" viewBox="0 0 40 40">
  <path id="Caminho_656" data-name="Caminho 656" d="M20,0A20,20,0,1,1,0,20,20,20,0,0,1,20,0Z" transform="translate(0)" fill="#25d366" fill-rule="evenodd"/>
  <g id="Grupo_4973" data-name="Grupo 4973" transform="translate(10 8.49)">
    <g id="WA_Logo">
      <g id="Grupo_422" data-name="Grupo 422">
        <path id="Caminho_640" data-name="Caminho 640" d="M188.434,173.935a10.688,10.688,0,0,0-16.819,12.894l-1.515,5.538,5.665-1.486a10.658,10.658,0,0,0,5.105,1.3h0a10.692,10.692,0,0,0,7.561-18.246Zm-7.557,16.441h0a8.854,8.854,0,0,1-4.52-1.239l-.325-.192-3.362.881.9-3.278-.211-.335a8.882,8.882,0,1,1,7.525,4.162Zm4.871-6.653c-.267-.133-1.58-.78-1.824-.868s-.423-.133-.6.133-.689.868-.845,1.047-.312.2-.579.068a7.262,7.262,0,0,1-2.146-1.327,8.107,8.107,0,0,1-1.486-1.85c-.156-.267-.016-.413.117-.546s.267-.312.4-.468a1.779,1.779,0,0,0,.267-.445.491.491,0,0,0-.023-.468c-.068-.133-.6-1.447-.823-1.984-.218-.52-.436-.449-.6-.459s-.335-.01-.511-.01a.983.983,0,0,0-.712.335,3,3,0,0,0-.933,2.228,5.182,5.182,0,0,0,1.089,2.761A11.9,11.9,0,0,0,181.1,185.9a15.248,15.248,0,0,0,1.522.563,3.645,3.645,0,0,0,1.681.107,2.755,2.755,0,0,0,1.8-1.268,2.259,2.259,0,0,0,.156-1.268C186.193,183.924,186.015,183.859,185.748,183.723Z" transform="translate(-170.1 -170.8)" fill="#fff" fill-rule="evenodd"/>
      </g>
    </g>
  </g>
</svg>
