<svg xmlns="http://www.w3.org/2000/svg" width="25" height="20" viewBox="0 0 25 20">
  <path id="developed_by_mundiware" data-name="developed by mundiware" d="M100.217,54.735c.021.01.066.04.066.04V58.6c-1.6-.515-10.6-3.444-10.929-3.575a1.472,1.472,0,0,1-.182-.091l4.814-1.567,1.061-.349ZM95.044,44.188l-5.877-1.915a1.627,1.627,0,0,1,.182-.091c.318-.126,9.348-3.07,10.93-3.575v3.8a.2.2,0,0,1-.071.066c-.151.055-3.623,1.207-5.165,1.712m-6.11,2.254V42.866a1.048,1.048,0,0,1,.024-.237l6.061,1.97c3.077,1.009,4.705,1.544,4.836,1.6a.7.7,0,0,1,.333.217c-.923.465-3.153,1.227-5.4,1.98-2.133-.712-4.31-1.435-5.669-1.874L89,46.482c-.025-.015-.061-.04-.061-.04m4.913,6.533-4.913,1.6v-3.79l.076-.076c.763-.232,9.11-2.863,11.273-3.873l-.041.07v3.479a.541.541,0,0,1-.424.626c-.152.065-2.271.758-5.972,1.965m14.94.4,4.806,1.566a.938.938,0,0,1-.182.091c-.323.131-9.338,3.045-10.934,3.575V54.774s.045-.03.066-.04l5.185-1.713Zm5.135-10.965h0l-.008,0,0,0h.02Zm-11.367.07a.3.3,0,0,1-.081-.069v-3.8c1.576.5,10.611,3.449,10.924,3.575a1,1,0,0,1,.182.091l-5.857,1.915Zm11.257,3.962.021.005s-.035.025-.061.04l-.121.035c-1.359.439-3.537,1.162-5.674,1.874-2.238-.753-4.467-1.515-5.391-1.98a.655.655,0,0,1,.333-.217c.131-.056,1.76-.591,4.831-1.6l6.064-1.97a1.041,1.041,0,0,1,0,.237Zm-.065,4.273.076.076v3.535a.821.821,0,0,1,0,.172v.091l-4.912-1.6c-3.7-1.207-5.821-1.9-5.973-1.965a.54.54,0,0,1-.472-.6l.006-.039V46.837c2.163,1.01,10.5,3.641,11.274,3.873" transform="translate(-88.934 -38.607)" fill="#fff"/>
</svg>
