<svg xmlns="http://www.w3.org/2000/svg" width="224" height="46" viewBox="0 0 224 46">
  <g id="logo" transform="translate(-5.009 -5)">
    <path id="formato" d="M30.015,9.691h0v-.1ZM10.5,45.652a5.167,5.167,0,0,1,3.834-8.743,5.194,5.194,0,0,1,5.058,5.165v.013a5.245,5.245,0,0,1-5.226,5.154H14.12A5.133,5.133,0,0,1,10.5,45.652M40.82,41.968a5.168,5.168,0,0,1,5.271-5.058,5.167,5.167,0,0,1-.156,10.332h-.057a5.172,5.172,0,0,1-5.059-5.273M34.1,21.889a9.247,9.247,0,0,0,4.149-4.15l.482-.973.894.613A16.416,16.416,0,0,1,46.763,30.8a12.8,12.8,0,0,1-.082,1.522l-.1.829-.833.007a9.087,9.087,0,0,0-8.967,8.925h0a8.7,8.7,0,0,0,.415,2.647l.263.82-.793.335a17.134,17.134,0,0,1-13.3,0l-.792-.335.261-.819a8.689,8.689,0,0,0,.412-2.659,9.037,9.037,0,0,0-8.964-8.914l-.866,0-.07-.864c-.039-.479-.078-.976-.078-1.483A16.421,16.421,0,0,1,20.4,17.379l.894-.613.482.973a9.177,9.177,0,0,0,12.32,4.15m-9.337-7.973a5.229,5.229,0,0,1,5.216-5.168h.062A5.246,5.246,0,0,1,35.268,13.9v.015a5.253,5.253,0,1,1-10.505,0m3.326-8.711a9.173,9.173,0,0,0-7.03,7.032l-.094.442-.4.2A20.272,20.272,0,0,0,9.393,30.811a21.127,21.127,0,0,0,.2,2.855l.083.6-.516.325A8.877,8.877,0,0,0,14.1,50.987h.047A9.219,9.219,0,0,0,19.854,49l.463-.37.534.259a20.926,20.926,0,0,0,18.333,0l.535-.259.463.37a9.133,9.133,0,0,0,5.711,1.991,9.027,9.027,0,0,0,9.116-8.921,8.814,8.814,0,0,0-4.153-7.472l-.479-.3.249-3.512a20.212,20.212,0,0,0-11.163-17.9l-.4-.2-.094-.441A9.15,9.15,0,0,0,28.089,5.205" fill="#e51d35"/>
    <path id="logotipo" d="M277.238,37.707h3.472l-2.98,4.58h-2.8Zm-2.827,21.7h3.749V44.113h-3.749Zm-5.285-20.088h-3.749v4.758h-2.919v3.152h2.919V59.336h3.749V47.224h2.95V44.072h-2.95ZM236.34,43.531a5.576,5.576,0,0,0-4.855,2.458L231.178,44h-3.472V59.365h3.749V51.09c0-2.489,1.413-4.106,3.718-4.106,1.936,0,3.2,1.244,3.2,3.826v8.555h3.749V49.908c0-3.982-1.967-6.377-5.777-6.377m24.8,7.917c0,4.672-3.411,7.887-8.112,7.887s-8.112-3.216-8.112-7.887,3.411-7.887,8.112-7.887,8.112,3.215,8.112,7.887m-3.749,0a4.369,4.369,0,1,0-8.727,0,4.369,4.369,0,1,0,8.727,0m120.6-7.917a5.725,5.725,0,0,0-4.916,2.4V36.4h-3.779V59.365h3.749V50.781a3.589,3.589,0,0,1,3.749-3.883c1.9,0,3.165,1.214,3.165,3.731v8.735h3.749V49.75c0-3.883-1.966-6.219-5.715-6.219M341.456,51.9c3.411-2.882,5.131-5.218,5.131-8.312,0-4.49-2.981-7.19-7.774-7.19-4.763,0-7.9,3.155-7.928,8.009h3.9c.031-2.852,1.567-4.55,4.025-4.55,2.366,0,3.749,1.426,3.749,3.944,0,2.123-1.014,3.58-4.056,6.128l-7.344,6.128V59.4l15.579-.03V55.331H337.4Zm22.032-.546h2.735v3.4h-2.735v4.61H359.77v-4.61h-11.4v-3.4L358.541,36.8h4.947ZM359.77,40.983l-7.221,10.375h7.221ZM319.7,49.871v9.494h-3.238l-.326-2.607c-.645,1.547-2.7,2.609-5.07,2.609-3.227,0-5.193-1.851-5.193-4.672,0-2.76,2.028-4.49,5.623-4.763l4.548-.334v-.334c0-2.032-1.229-2.851-3.134-2.851-2.212,0-3.442.91-3.442,2.488h-3.2c0-3.246,2.7-5.369,6.822-5.369,4.087,0,6.606,2.184,6.606,6.34m-3.626,2.245-3.165.243c-2.335.212-3.227.971-3.227,2.184,0,1.365.922,2.032,2.612,2.032a3.45,3.45,0,0,0,3.779-3.671ZM300.805,36.523a2.255,2.255,0,0,0-2.3,2.253,2.274,2.274,0,1,0,4.548,0,2.241,2.241,0,0,0-2.243-2.253m-1.874,22.841h3.749V44.117h-3.749Zm-10.17-3.336c-2.4,0-3.872-1.76-3.872-4.581s1.6-4.611,3.994-4.611a3.28,3.28,0,0,1,3.472,2.579H296.1c-.4-3.61-3.227-5.885-7.375-5.885-4.486,0-7.59,3.276-7.59,7.917,0,4.763,3.012,7.918,7.62,7.918,3.964,0,6.914-2.4,7.374-5.885h-3.779a3.363,3.363,0,0,1-3.6,2.548" transform="translate(-154.697 -20.402)" fill="#ffffff"/>
  </g>
</svg>
