<svg xmlns="http://www.w3.org/2000/svg" viewBox="0 0 340.12 85.66"><defs><style>.cls-1{fill:#94162f;}.cls-2{fill:#009be0;}.cls-3{fill:#06173f;}</style></defs><g id="Camada_2" data-name="Camada 2"><g id="_10" data-name="10"><path class="cls-1" d="M15.51,21.75l-.08,0L9.65,19.84l-2.21-.72-.63-.21-.92-.3-.06,0-.94-.3L4.06,18l-.4-.13-.24-.08L1.86,17.3.72,16.93l-.06,0h0l-.21-.07a2.2,2.2,0,0,0-.15.26h0A4.23,4.23,0,0,0,0,18.71v.75c0,3.34,0,6.62,0,9.87,0,1.53,0,3.06,0,4.58A.44.44,0,0,0,0,34a1.32,1.32,0,0,0,.62.66h0s42.45,13.72,48.6,16.87a1.81,1.81,0,0,0,.31-1.25c0-4.87,0-9.75,0-14.78a3,3,0,0,0-2.23-3.32c-.7-.27-10.23-3.4-20.57-6.77l-.06,0L22.6,24.06l-3-1-.64-.21Z"/><path class="cls-2" d="M2.24,15.5A3.31,3.31,0,0,0,.45,16.84h0a2.2,2.2,0,0,0-.15.26h0a4.13,4.13,0,0,0-.14.42s0,.05,0,.07A3.11,3.11,0,0,0,.06,18a.08.08,0,0,1,0,0h0a6.16,6.16,0,0,0,0,.64v.75c0,3.34,0,6.62,0,9.87,0,1.53,0,3.06,0,4.58A.44.44,0,0,0,0,34a1.32,1.32,0,0,0,.62.66c.8-.36,2.45-1,4.48-1.75h0C9.39,31.35,15.32,29.25,18.76,28l.27-.1,1.73-.6h0l.32-.11.3-.11.08,0,.05,0,.59-.19,1-.33.92-.3,1.06-.35.81-.27.74-.24h0C34.35,22.83,48.16,18.26,48.8,18c.32-.11.74-.53.74-.82,0-5.66,0-11.32,0-17.21C47.11.79,3.76,14.9,2.24,15.5Z"/><path class="cls-3" d="M23.87,59.37l-1.57-.52-.24-.08-.52-.17-.15-.06L21,58.41l-.52-.18-.15,0-.19-.07L19.89,58l-.31-.11-.11,0L17.09,57h0c-4.6-1.63-11.55-4.1-14.93-5.43h0l-.45-.18L.65,51a1.64,1.64,0,0,0-.26.17h0l0,0-.09.09-.07.09a1,1,0,0,0-.13.18h0c0,.09,0,.2-.06.32C0,53,0,54.2,0,55.37c0,1.93,0,3.87,0,5.82S0,65,0,66.85a4.3,4.3,0,0,0,.28,1.71h0a2.07,2.07,0,0,0,.15.25h0a3.26,3.26,0,0,0,1.78,1.35c1.52.6,44.87,14.71,47.33,15.5,0-5.89,0-11.55,0-17.21,0-.29-.42-.71-.74-.82-.64-.23-14.45-4.8-22.16-7.35h0l-.28-.09L25.79,60Z"/><path class="cls-1" d="M.72,51l0,0Z"/><path class="cls-2" d="M.72,51l-.1,0h0l-.23.15h0l0,0-.09.09-.07.09a1,1,0,0,0-.13.18h0c0,.09,0,.2-.06.32C0,53,0,54.2,0,55.37c0,1.93,0,3.87,0,5.82S0,65,0,66.85a4.3,4.3,0,0,0,.28,1.71h0a2.07,2.07,0,0,0,.15.25l.85-.27h0l1.83-.6.34-.11L7,66.7l4.68-1.53L13,64.75l.35-.12,1-.34.78-.25.7-.23,4.31-1.41,1.79-.58h0c12-3.92,24.59-8,25.4-8.36a3,3,0,0,0,2.23-3.31c0-5,0-9.91,0-14.78a3.76,3.76,0,0,0-.19-1.28C41.47,38.14,1.08,50.91.72,51Z"/><path class="cls-1" d="M95.84,63.91l.08,0,5.78,1.88,2.21.72.63.21.92.3.06,0,1,.3.83.27.39.13.24.08,1.56.51,1.14.37.07,0h0l.2.07c0-.09.11-.17.15-.26h0a4.23,4.23,0,0,0,.28-1.61V66.2c0-3.34,0-6.62,0-9.87,0-1.53,0-3.06,0-4.58a.38.38,0,0,0,0-.1,1.32,1.32,0,0,0-.62-.66h0S68.25,37.27,62.09,34.12a1.86,1.86,0,0,0-.31,1.25c0,4.87,0,9.75,0,14.78A3,3,0,0,0,64,53.47c.69.27,10.22,3.4,20.56,6.77l.06,0,4.09,1.33,3,1,.65.21Z"/><path class="cls-2" d="M109.11,70.16a3.27,3.27,0,0,0,1.79-1.34h0c0-.09.11-.17.15-.26h0a2.59,2.59,0,0,0,.14-.42s0,0,0-.07,0-.29.07-.44a.08.08,0,0,0,0,0h0a6.28,6.28,0,0,0,0-.64V66.2c0-3.34,0-6.62,0-9.87,0-1.53,0-3.06,0-4.58a.38.38,0,0,0,0-.1,1.32,1.32,0,0,0-.62-.66c-.8.36-2.45,1-4.49,1.75h0C102,54.31,96,56.41,92.59,57.62l-.27.1-1.72.6h0l-.31.11-.31.11-.07,0-.06,0-.58.19-1,.33-.92.3-1.06.35-.81.27-.74.24h0C77,62.83,63.19,67.4,62.55,67.63a1.25,1.25,0,0,0-.74.82c0,5.66,0,11.32,0,17.21C64.24,84.87,107.6,70.76,109.11,70.16Z"/><path class="cls-3" d="M87.48,26.29l1.57.52.24.08.52.17.15.06.38.13.53.18.14.05.2.07.25.09.31.11.11,0,2.38.83h0c4.6,1.63,11.54,4.1,14.93,5.43h0l.45.18,1,.42a1,1,0,0,0,.26-.18h0l0,0,.09-.09.08-.09a.94.94,0,0,0,.12-.18h0a1.4,1.4,0,0,0,.06-.32c0-1.17,0-2.34,0-3.51,0-1.93,0-3.87,0-5.82V18.81a4.13,4.13,0,0,0-.28-1.71h0a2.07,2.07,0,0,0-.15-.25h0a3.32,3.32,0,0,0-1.79-1.35C107.6,14.9,64.24.79,61.78,0c0,5.89,0,11.55,0,17.21a1.25,1.25,0,0,0,.74.82c.64.23,14.45,4.8,22.16,7.35h0l.29.09.57.19Z"/><path class="cls-1" d="M110.63,34.71l0,0Z"/><path class="cls-2" d="M110.63,34.71l.1-.05h0a.87.87,0,0,0,.23-.16h0l0,0,.09-.09.08-.09a.94.94,0,0,0,.12-.18h0a1.4,1.4,0,0,0,.06-.32c0-1.17,0-2.34,0-3.51,0-1.93,0-3.87,0-5.82V18.81a4.13,4.13,0,0,0-.28-1.71h0a2.07,2.07,0,0,0-.15-.25l-.84.27h0l-1.83.6-.34.11L104.4,19l-4.68,1.53-1.31.42-.36.12-1,.34-.79.25-.7.23-4.31,1.41-1.79.58h0c-12,3.92-24.59,8-25.39,8.36a3,3,0,0,0-2.24,3.31c0,5,0,9.91,0,14.78A4,4,0,0,0,62,51.57C69.88,47.52,110.27,34.75,110.63,34.71Z"/><path class="cls-3" d="M123.23,18.69h5.62a1,1,0,0,1,.91.55l9.18,20.56L148,19.24a1,1,0,0,1,.91-.55h5.62V47.24h-4.34a.67.67,0,0,1-.68-.68V26.76l-8.42,19.33a1.71,1.71,0,0,1-1.52.93h-1.42a1.7,1.7,0,0,1-1.52-.92l-8.46-19.34v19.8a.67.67,0,0,1-.68.68h-4.3Z"/><path class="cls-3" d="M179.24,25.42V47.24h-4.67a.67.67,0,0,1-.67-.68V43.2q-2.21,4.24-7.59,4.25a7.6,7.6,0,0,1-5.8-2.25,8.55,8.55,0,0,1-2.12-6.12V25.42h4.67a.68.68,0,0,1,.68.68V37.53A5,5,0,0,0,165,41.12a4.54,4.54,0,0,0,3.45,1.31,5.08,5.08,0,0,0,4-1.8,6.66,6.66,0,0,0,1.47-4.44V26.1a.67.67,0,0,1,.67-.68Z"/><path class="cls-3" d="M202.25,27.48a8.52,8.52,0,0,1,2.16,6.14V47.24h-4.66a.67.67,0,0,1-.68-.68V35.17a4.91,4.91,0,0,0-1.31-3.61,4.73,4.73,0,0,0-3.55-1.33A5.4,5.4,0,0,0,190,32a6.56,6.56,0,0,0-1.53,4.48V46.56a.67.67,0,0,1-.68.68H183.2V25.42h4.62a.67.67,0,0,1,.68.68v3.4q2.25-4.2,7.84-4.29A7.78,7.78,0,0,1,202.25,27.48Z"/><path class="cls-3" d="M230.81,17V47.24h-4.63a.67.67,0,0,1-.67-.68V43.74a8,8,0,0,1-3,2.79,9.28,9.28,0,0,1-4.31,1,10.33,10.33,0,0,1-5.44-1.41,9.6,9.6,0,0,1-3.66-4,12.66,12.66,0,0,1-1.3-5.85A12.54,12.54,0,0,1,209,30.5a9.44,9.44,0,0,1,3.63-3.9A10.43,10.43,0,0,1,218,25.21a9.31,9.31,0,0,1,4.36,1A8.24,8.24,0,0,1,225.51,29V17.65a.68.68,0,0,1,.67-.68Zm-7,24.22a6.74,6.74,0,0,0,1.74-4.8,6.72,6.72,0,0,0-1.74-4.79,5.83,5.83,0,0,0-4.47-1.86,5.75,5.75,0,0,0-4.44,1.86,7.41,7.41,0,0,0,0,9.59A5.78,5.78,0,0,0,219.3,43,5.86,5.86,0,0,0,223.77,41.19Z"/><path class="cls-3" d="M239.75,17.87a3.17,3.17,0,0,1,.85,2.28,3.13,3.13,0,0,1-.85,2.25,2.89,2.89,0,0,1-2.17.9,2.85,2.85,0,0,1-2.16-.9,3.14,3.14,0,0,1-.86-2.25,3.18,3.18,0,0,1,.86-2.28,2.85,2.85,0,0,1,2.16-.9A2.89,2.89,0,0,1,239.75,17.87ZM235,25.42h4.63a.68.68,0,0,1,.68.68V46.56a.68.68,0,0,1-.68.68H235Z"/><path class="cls-3" d="M242.89,25.46l5,0a.69.69,0,0,1,.65.47l5.19,16,4.81-15.29a1.69,1.69,0,0,1,1.62-1.19H263a1.69,1.69,0,0,1,1.62,1.18l4.89,15.3,5.07-16a.68.68,0,0,1,.65-.47h4.84l-7.91,21.82h-4.7a1,1,0,0,1-1-.69l-5-14.69-4.95,14.69a1,1,0,0,1-1,.69h-4.7Z"/><path class="cls-3" d="M295.5,46.56v-2a7.14,7.14,0,0,1-2.94,2.16,10.78,10.78,0,0,1-4.12.74,8.75,8.75,0,0,1-4-.88,6.42,6.42,0,0,1-2.67-2.43,6.6,6.6,0,0,1-.94-3.46,5.8,5.8,0,0,1,2.17-4.8,9.77,9.77,0,0,1,6.12-1.77h6.36v-.57a3.68,3.68,0,0,0-1.26-3,5.59,5.59,0,0,0-3.68-1.06,12.19,12.19,0,0,0-5.87,1.68.68.68,0,0,1-.94-.27l-1.59-3a23.48,23.48,0,0,1,4.67-2.06,16.83,16.83,0,0,1,4.92-.64,9.73,9.73,0,0,1,6.59,2A7.31,7.31,0,0,1,300.68,33l0,14.28h-4.54A.67.67,0,0,1,295.5,46.56Zm-1.88-4.23a3.77,3.77,0,0,0,1.84-2.67v-2H290a6,6,0,0,0-3.12.63,2.25,2.25,0,0,0-1,2.06,2.66,2.66,0,0,0,1,2.2,4.46,4.46,0,0,0,2.84.82A6.9,6.9,0,0,0,293.62,42.33Z"/><path class="cls-3" d="M313,26.38a8.85,8.85,0,0,1,4.43-1.17v4.44a.68.68,0,0,1-.67.68A6.93,6.93,0,0,0,312,31.92a6.11,6.11,0,0,0-2,4.8v9.5a1,1,0,0,1-1,1h-4.28V25.42h4.62a.67.67,0,0,1,.68.68v3.52A7.92,7.92,0,0,1,313,26.38Z"/><path class="cls-3" d="M337.49,28.23q2.63,3,2.63,8.37c0,.7,0,1.23,0,1.59H324a6.38,6.38,0,0,0,2.19,3.65,6.29,6.29,0,0,0,4.06,1.32,8.34,8.34,0,0,0,3.2-.63,7.81,7.81,0,0,0,2-1.18,1,1,0,0,1,1.37.08l2.17,2.26a11,11,0,0,1-4,2.78,13.42,13.42,0,0,1-5.2,1,12.1,12.1,0,0,1-5.9-1.39,9.59,9.59,0,0,1-3.93-3.9,11.65,11.65,0,0,1-1.39-5.77A11.71,11.71,0,0,1,320,30.6a9.93,9.93,0,0,1,3.93-3.94,11.65,11.65,0,0,1,5.76-1.41C333.12,25.25,335.74,26.25,337.49,28.23Zm-2.22,6.41a5.34,5.34,0,0,0-1.59-3.84,6.2,6.2,0,0,0-7.9,0,6.25,6.25,0,0,0-1.94,3.86Z"/><path class="cls-3" d="M131.85,58.2h-3.64v9.42h-1.33V58.2h-3.65V57h8.62Z"/><path class="cls-3" d="M141.89,66.42v1.2h-7.16V57h7V58.2h-5.7v3.44H141v1.12h-4.95v3.66Z"/><path class="cls-3" d="M144.18,62.24a5.83,5.83,0,0,1,.34-1.91,5.25,5.25,0,0,1,1-1.7,5,5,0,0,1,1.58-1.22,4.73,4.73,0,0,1,2.13-.46,4.39,4.39,0,0,1,2.42.64,4.08,4.08,0,0,1,1.5,1.67l-1.06.69a2.91,2.91,0,0,0-1.3-1.4,3,3,0,0,0-.81-.3,3.72,3.72,0,0,0-.81-.09,3.18,3.18,0,0,0-1.56.37,3.58,3.58,0,0,0-1.13.95,4.11,4.11,0,0,0-.69,1.33,4.82,4.82,0,0,0-.23,1.49,4.66,4.66,0,0,0,.27,1.59,4.55,4.55,0,0,0,.77,1.34,3.61,3.61,0,0,0,1.16.93,3.22,3.22,0,0,0,1.45.34,3.76,3.76,0,0,0,.86-.11,3,3,0,0,0,.84-.33,4.44,4.44,0,0,0,.75-.58,3,3,0,0,0,.57-.85l1.11.61a3.43,3.43,0,0,1-.7,1.06,4.86,4.86,0,0,1-1,.77,5.09,5.09,0,0,1-1.21.48,5.49,5.49,0,0,1-1.25.16,4.21,4.21,0,0,1-2-.48A5.29,5.29,0,0,1,145.57,66a5.55,5.55,0,0,1-1-1.75A5.7,5.7,0,0,1,144.18,62.24Z"/><path class="cls-3" d="M157.7,59.52v8.1h-1.34V57h1l6.54,8.26V57h1.34v10.6h-1.13Z"/><path class="cls-3" d="M173.44,67.7a4.55,4.55,0,0,1-2-.46A4.89,4.89,0,0,1,169.85,66a5.46,5.46,0,0,1-1-1.73,5.92,5.92,0,0,1-.35-2,5.42,5.42,0,0,1,.38-2,5.65,5.65,0,0,1,1-1.72,5.18,5.18,0,0,1,1.59-1.19,4.56,4.56,0,0,1,2-.44,4.36,4.36,0,0,1,2,.47,5.13,5.13,0,0,1,1.56,1.24,5.64,5.64,0,0,1,1,5.72,5.48,5.48,0,0,1-1,1.71,4.85,4.85,0,0,1-1.58,1.18A4.39,4.39,0,0,1,173.44,67.7Zm-3.61-5.39a4.92,4.92,0,0,0,.26,1.57,4.11,4.11,0,0,0,.74,1.33,3.44,3.44,0,0,0,1.14.93,3.2,3.2,0,0,0,1.49.34,3.12,3.12,0,0,0,1.51-.36,3.65,3.65,0,0,0,1.14-1,4.2,4.2,0,0,0,.71-1.34,4.6,4.6,0,0,0,.25-1.51,4.91,4.91,0,0,0-.26-1.56,4.24,4.24,0,0,0-.75-1.33,3.76,3.76,0,0,0-1.14-.92,3.11,3.11,0,0,0-1.46-.34,3.16,3.16,0,0,0-1.52.36,3.7,3.7,0,0,0-1.14.94,4.38,4.38,0,0,0-.72,1.33A4.7,4.7,0,0,0,169.83,62.31Z"/><path class="cls-3" d="M181.63,67.62V57H183v9.41h5.89v1.2Z"/><path class="cls-3" d="M195.62,67.7a4.48,4.48,0,0,1-2-.46A4.93,4.93,0,0,1,192,66a5.43,5.43,0,0,1-1-1.73,5.69,5.69,0,0,1-.36-2,5.62,5.62,0,0,1,.38-2,5.49,5.49,0,0,1,1.05-1.72,5,5,0,0,1,1.58-1.19,4.56,4.56,0,0,1,2-.44,4.33,4.33,0,0,1,2,.47,5.13,5.13,0,0,1,1.56,1.24,5.64,5.64,0,0,1,1,1.72,5.85,5.85,0,0,1,.35,2,5.38,5.38,0,0,1-.38,2,5.48,5.48,0,0,1-1,1.71,4.81,4.81,0,0,1-1.57,1.18A4.44,4.44,0,0,1,195.62,67.7ZM192,62.31a4.92,4.92,0,0,0,.26,1.57,4.31,4.31,0,0,0,.74,1.33,3.65,3.65,0,0,0,1.14.93,3.2,3.2,0,0,0,1.49.34,3.12,3.12,0,0,0,1.51-.36,3.65,3.65,0,0,0,1.14-1,4.2,4.2,0,0,0,.71-1.34,4.6,4.6,0,0,0,.25-1.51,4.91,4.91,0,0,0-.26-1.56,4.22,4.22,0,0,0-.74-1.33,3.92,3.92,0,0,0-1.15-.92,3.11,3.11,0,0,0-1.46-.34,3.16,3.16,0,0,0-1.52.36,3.67,3.67,0,0,0-1.13.94,4,4,0,0,0-.72,1.33A4.71,4.71,0,0,0,192,62.31Z"/><path class="cls-3" d="M211.26,66.19a4.28,4.28,0,0,1-3.21,1.51,4.19,4.19,0,0,1-2-.47A5,5,0,0,1,204.55,66a5.86,5.86,0,0,1-1-1.72,5.56,5.56,0,0,1-.38-2,5.64,5.64,0,0,1,.38-2,5.5,5.5,0,0,1,1-1.7,5,5,0,0,1,1.56-1.17,4.92,4.92,0,0,1,4.48.21,4.19,4.19,0,0,1,1.51,1.67l-1,.72a3.14,3.14,0,0,0-1.26-1.38,3.48,3.48,0,0,0-1.77-.45,2.94,2.94,0,0,0-1.45.36,3.57,3.57,0,0,0-1.12.92,4.58,4.58,0,0,0-.71,1.33,4.9,4.9,0,0,0-.25,1.56,4.51,4.51,0,0,0,.28,1.61,4.38,4.38,0,0,0,.77,1.33,3.53,3.53,0,0,0,1.16.91,3.39,3.39,0,0,0,1.46.32,4,4,0,0,0,3.1-1.67V63.35H209v-1h3.4v5.29h-1.13Z"/><path class="cls-3" d="M215.79,67.62V57h1.33V67.62Z"/><path class="cls-3" d="M224.22,57h1.13l4.31,10.61h-1.43L227,64.51h-4.43l-1.23,3.11h-1.43Zm2.46,6.45-1.9-4.9-2,4.9Z"/><path class="cls-3" d="M244.25,66.42v1.2h-7.17V57h7V58.2h-5.69v3.44h5v1.12h-5v3.66Z"/><path class="cls-3" d="M247.43,67.62V57h3.66a5.49,5.49,0,0,1,2.22.42,4.55,4.55,0,0,1,1.6,1.13,5,5,0,0,1,1,1.68,6.63,6.63,0,0,1,.32,2.06,6.29,6.29,0,0,1-.36,2.19,4.66,4.66,0,0,1-1,1.67,4.4,4.4,0,0,1-1.61,1.08,5.65,5.65,0,0,1-2.1.38Zm7.4-5.32a5.39,5.39,0,0,0-.24-1.65,3.66,3.66,0,0,0-.73-1.3,3.48,3.48,0,0,0-1.18-.84,4,4,0,0,0-1.59-.31h-2.32v8.22h2.32a3.92,3.92,0,0,0,1.61-.31,3.21,3.21,0,0,0,1.17-.87,3.73,3.73,0,0,0,.72-1.3A5.42,5.42,0,0,0,254.83,62.3Z"/><path class="cls-3" d="M259.43,67.62V57h1.34V67.62Z"/><path class="cls-3" d="M272.26,58.2h-3.64v9.42h-1.34V58.2h-3.64V57h8.62Z"/><path class="cls-3" d="M279.1,67.7a4.55,4.55,0,0,1-2-.46A5,5,0,0,1,275.51,66a5.25,5.25,0,0,1-1-1.73,5.69,5.69,0,0,1-.36-2,5.62,5.62,0,0,1,.38-2,5.49,5.49,0,0,1,1.05-1.72,5,5,0,0,1,1.58-1.19,4.56,4.56,0,0,1,2-.44,4.33,4.33,0,0,1,2,.47,5.13,5.13,0,0,1,1.56,1.24,5.42,5.42,0,0,1,1,1.72,5.59,5.59,0,0,1,0,4,5.48,5.48,0,0,1-1,1.71,4.81,4.81,0,0,1-1.57,1.18A4.44,4.44,0,0,1,279.1,67.7Zm-3.61-5.39a4.92,4.92,0,0,0,.26,1.57,4.31,4.31,0,0,0,.74,1.33,3.54,3.54,0,0,0,1.14.93,3.2,3.2,0,0,0,1.49.34,3.12,3.12,0,0,0,1.51-.36,3.65,3.65,0,0,0,1.14-1,4.2,4.2,0,0,0,.71-1.34,4.6,4.6,0,0,0,.25-1.51,4.91,4.91,0,0,0-.26-1.56,4.22,4.22,0,0,0-.74-1.33,3.92,3.92,0,0,0-1.15-.92,3.11,3.11,0,0,0-1.46-.34,3.16,3.16,0,0,0-1.52.36,3.67,3.67,0,0,0-1.13.94,4.19,4.19,0,0,0-.73,1.33A5,5,0,0,0,275.49,62.31Z"/><path class="cls-3" d="M287.3,67.62V57h4.52a2.9,2.9,0,0,1,1.28.29,3.08,3.08,0,0,1,1,.78,3.65,3.65,0,0,1,.66,1.09A3.28,3.28,0,0,1,295,60.4a3.47,3.47,0,0,1-.16,1.07,3.32,3.32,0,0,1-.44.93,3.19,3.19,0,0,1-.7.72,2.72,2.72,0,0,1-.91.43l2.55,4.07h-1.51l-2.41-3.81h-2.8v3.81Zm1.33-5h3.2a1.54,1.54,0,0,0,.75-.18,1.87,1.87,0,0,0,.57-.48,2.4,2.4,0,0,0,.37-.71,2.64,2.64,0,0,0,.14-.84,2.13,2.13,0,0,0-.16-.84,2.49,2.49,0,0,0-.41-.71,2,2,0,0,0-.61-.47,1.62,1.62,0,0,0-.74-.18h-3.11Z"/><path class="cls-3" d="M298.42,67.62V57h1.34V67.62Z"/><path class="cls-3" d="M306.85,57H308l4.31,10.61h-1.43l-1.25-3.11h-4.42L304,67.62h-1.42Zm2.47,6.45-1.9-4.9-2,4.9Z"/><path class="cls-3" d="M315.06,67.62V57h1.34v9.41h5.88v1.2Z"/></g></g></svg>