<svg xmlns="http://www.w3.org/2000/svg" width="60" height="60" viewBox="0 0 60 60">
  <g id="modo_clean" data-name="modo clean" transform="translate(-1395 -390)">
    <rect id="Retângulo_81" data-name="Retângulo 81" width="60" height="60" rx="30" transform="translate(1395 390)" fill="#fff"/>
    <path id="Caminho_1070" data-name="Caminho 1070" d="M31.952,6.124A5.825,5.825,0,1,0,37.8,11.95a5.834,5.834,0,0,0-5.847-5.826m2.659,8.019c-.057.072-.142.156-.214.241A3.448,3.448,0,0,1,31.937,15.4a3.322,3.322,0,0,1-2.43-1.025,2.9,2.9,0,0,1-.443-.513c-.043-.085-.114-.171-.157-.27a3.57,3.57,0,0,1-.356-.94h.013c0-.029-.013-.057-.013-.085a.967.967,0,0,1-.044-.285.755.755,0,0,0-.013-.171v-.314a.734.734,0,0,0,.013-.169.124.124,0,0,1,.015-.072,1.115,1.115,0,0,1,.043-.3,2.427,2.427,0,0,1,.129-.455,3.6,3.6,0,0,1,.214-.486c.043-.085.114-.184.172-.285a3.313,3.313,0,0,1,.443-.526,3.355,3.355,0,0,1,2.415-1,3.468,3.468,0,0,1,2.673,1.253,3.4,3.4,0,0,1,0,4.388m-11.963-1H21.1a1.21,1.21,0,0,1-1.158-1.154,1.192,1.192,0,0,1,1.143-1.225h1.558a1.189,1.189,0,0,1,0,2.379m3.617,4.515a1.189,1.189,0,0,1-.043,1.681l-1.145,1.139a1.2,1.2,0,0,1-1.686-.042,1.176,1.176,0,0,1,.043-1.681l1.1-1.1-.257-.256.3.213a1.186,1.186,0,0,1,1.687.042m6.875,3.562v1.623a1.2,1.2,0,0,1-.373.826,1.116,1.116,0,0,1-.857.327,1.2,1.2,0,0,1-.829-.37,1.163,1.163,0,0,1-.329-.868V21.208a1.19,1.19,0,0,1,1.185-1.183h.015a1.194,1.194,0,0,1,1.187,1.2m7.331-2.465a1.19,1.19,0,0,1-1.686,1.681l-1.1-1.1a1.174,1.174,0,0,1,0-1.681,1.209,1.209,0,0,1,1.686,0Zm3.474-6.851A1.183,1.183,0,0,1,42.8,13.132H41.257a1.182,1.182,0,0,1-.015-2.364h1.6a1.187,1.187,0,0,1,1.1,1.139M37.727,6.224a1.181,1.181,0,0,1-.043-1.665l1.1-1.1a1.136,1.136,0,0,1,.844-.341,1.183,1.183,0,0,1,.842.341,1.2,1.2,0,0,1,0,1.681l-1.1,1.082a1.185,1.185,0,0,1-1.643,0M30.752,2.678V1.154A1.188,1.188,0,0,1,31.909,0h.043a1.173,1.173,0,0,1,1.187,1.14V2.692a1.172,1.172,0,0,1-.343.826,1.392,1.392,0,0,1-.844.342h-.015a1.189,1.189,0,0,1-1.185-1.181M23.434,5.142a1.177,1.177,0,0,1,0-1.681,1.18,1.18,0,0,1,1.687,0l1.1,1.1a1.19,1.19,0,0,1-1.687,1.68Z" transform="translate(1393.054 408)" fill="#1c1c1c"/>
  </g>
</svg>
